<?xml version="1.0" standalone="no"?>
<!DOCTYPE svg PUBLIC "-//W3C//DTD SVG 20010904//EN"
 "http://www.w3.org/TR/2001/REC-SVG-20010904/DTD/svg10.dtd">
<svg version="1.0" xmlns="http://www.w3.org/2000/svg"
 width="2302.000000pt" height="2302.000000pt" viewBox="0 0 2302.000000 2302.000000"
 preserveAspectRatio="xMidYMid meet">
<metadata>
Created by potrace 1.11, written by Peter Selinger 2001-2013
</metadata>
<g transform="translate(0.000000,2302.000000) scale(0.100000,-0.100000)"
fill="#000000" stroke="none">
<path d="M0 11510 l0 -10000 10000 0 10000 0 0 7120 0 7120 104 0 104 0 0
-297 c1 -164 1 -304 1 -310 1 -10 49 -13 206 -13 l205 0 0 310 0 310 345 0
c223 0 345 -4 346 -10 1 -5 2 -13 4 -17 1 -5 5 -26 9 -48 70 -360 338 -600
651 -582 157 9 290 72 401 190 l64 67 0 -110 0 -110 192 2 191 3 0 308 0 307
93 0 94 0 0 159 0 159 -67 -1 c-38 0 -80 1 -94 2 l-26 1 -1 583 c0 320 -1 592
-1 605 l-1 22 -205 0 -205 0 0 -382 0 -382 -47 46 c-105 102 -230 157 -373
165 -256 15 -483 -119 -593 -348 -41 -85 -69 -178 -81 -267 -3 -19 -7 -37 -10
-40 -8 -7 -654 -7 -662 0 -9 10 28 130 56 178 64 110 200 139 334 71 l54 -27
57 155 c78 215 77 205 19 230 -130 58 -268 65 -361 19 -53 -26 -118 -89 -171
-167 l-37 -54 -3 107 -3 106 -189 0 c-174 0 -190 -1 -191 -17 0 -10 0 -150 -1
-310 0 -161 -3 -293 -7 -294 -3 0 -50 -1 -104 -2 l-97 -2 0 2723 0 2722
-10000 0 -10000 0 0 -10000z m19800 7319 l0 -2480 -50 66 c-123 163 -290 267
-480 301 -55 10 -271 12 -325 2 -243 -42 -442 -185 -547 -392 -37 -73 -78
-190 -78 -223 0 -13 -7 -26 -17 -30 -13 -5 -345 -8 -428 -4 -19 1 -20 7 -20
149 l0 147 153 3 c136 2 152 4 153 20 3 55 4 279 1 290 -3 9 -42 12 -152 12
-109 0 -149 3 -152 13 -3 6 -4 39 -3 73 7 190 40 226 200 220 49 -2 105 -7
122 -11 38 -9 33 -19 63 135 12 63 23 122 25 132 3 15 -30 28 -110 44 -89 17
-122 21 -205 23 -239 6 -425 -89 -473 -243 -25 -77 -28 -99 -32 -246 -2 -69
-4 -128 -4 -132 -1 -5 -52 -8 -114 -8 l-112 0 0 -160 0 -160 112 0 c62 0 113
-3 114 -7 0 -5 1 -70 2 -146 2 -115 -1 -140 -13 -146 -8 -4 -107 -6 -220 -5
-245 2 -233 2 -225 14 6 9 80 238 149 460 18 58 36 115 40 128 l7 22 -203 0
-204 0 -46 -162 c-26 -90 -66 -228 -89 -308 -23 -80 -43 -147 -45 -149 -9 -9
-206 -6 -213 4 -5 5 -38 129 -75 275 -37 146 -71 282 -77 303 l-10 37 -199 0
-200 0 -6 -27 c-3 -16 -22 -86 -41 -158 -19 -71 -36 -137 -38 -145 -2 -8 -20
-76 -39 -152 -20 -75 -36 -138 -36 -140 0 -1 -50 -3 -110 -3 -110 0 -111 0
-117 25 -3 14 -26 97 -50 185 -39 136 -60 208 -112 385 l-8 25 -200 3 -201 2
13 -42 c13 -44 145 -459 170 -535 10 -32 11 -43 2 -44 -45 -4 -380 -3 -385 1
-4 3 -7 50 -8 105 -1 285 -49 388 -224 479 -97 51 -195 69 -395 72 -256 3
-392 -30 -513 -127 -77 -61 -144 -164 -181 -278 -13 -41 -8 -46 58 -56 25 -3
53 -8 61 -10 8 -1 42 -8 75 -14 83 -15 106 -20 137 -27 25 -5 29 -1 54 48 33
66 58 94 109 121 34 19 57 22 155 22 104 0 120 -3 165 -25 62 -33 95 -93 96
-176 1 -31 -3 -59 -7 -64 -8 -7 -74 -31 -99 -36 -5 -1 -39 -10 -75 -19 -58
-16 -133 -18 -747 -19 l-682 -1 5 30 c9 59 36 131 63 170 64 94 198 119 319
59 34 -17 62 -30 62 -29 0 1 67 191 106 300 20 58 19 62 -33 85 -129 57 -268
64 -359 18 -55 -27 -118 -88 -171 -166 l-38 -55 -3 107 -3 106 -189 0 c-145 0
-190 -3 -191 -12 0 -7 0 -147 -1 -310 0 -164 -3 -298 -6 -299 -21 -3 -1289 -4
-1298 -1 -15 4 10 121 37 174 54 107 145 161 276 164 76 2 89 0 146 -29 71
-36 121 -99 132 -167 4 -22 9 -40 11 -40 3 0 58 9 122 21 64 11 126 22 137 23
27 5 108 19 118 22 4 1 12 2 17 3 13 1 4 40 -27 109 -80 182 -205 292 -392
349 -72 21 -109 26 -226 29 -163 3 -250 -11 -361 -57 -208 -87 -364 -284 -406
-518 -6 -36 -11 -69 -10 -73 2 -9 -2 -10 -187 -12 -88 0 -145 3 -147 9 -1 6
-5 63 -8 127 -3 64 -8 122 -11 130 -2 7 -7 27 -9 43 -9 53 -74 170 -118 214
-51 50 -159 106 -243 126 -77 17 -210 17 -283 -2 -91 -23 -195 -80 -263 -144
-35 -32 -65 -59 -68 -59 -3 0 -6 172 -6 382 l0 383 -206 3 -206 2 1 -601 c1
-391 -2 -603 -9 -607 -5 -3 -133 -6 -282 -7 -236 0 -273 2 -274 15 -1 24 -1
253 0 273 1 15 15 17 141 17 l140 0 0 160 0 159 -142 3 -141 3 0 267 c0 147
-3 266 -6 264 -16 -9 -275 -159 -336 -194 l-70 -41 0 -148 -1 -148 -94 -5 -95
-5 0 -157 0 -158 95 0 95 0 0 -143 c0 -78 -3 -146 -7 -152 -7 -11 -1563 -13
-1575 -2 -3 4 237 7 535 7 l542 0 0 180 0 180 -538 0 -539 0 0 240 0 240 579
0 578 0 0 180 0 180 -795 0 -795 0 0 -605 c0 -569 -1 -605 -17 -606 -10 -1
-60 -1 -110 -1 l-93 -1 0 -158 0 -159 110 0 110 0 0 -310 0 -310 815 0 c769 0
815 1 816 18 1 23 1 291 0 320 l-1 22 -598 0 -599 0 0 130 0 130 788 0 c434 0
789 -3 790 -7 0 -5 2 -74 4 -156 4 -161 8 -197 30 -273 52 -180 256 -258 545
-208 41 7 93 20 114 29 l38 16 -6 62 c-3 34 -8 76 -10 93 -3 17 -8 60 -11 95
-4 35 -8 65 -9 67 -2 1 -23 -5 -47 -14 -24 -9 -72 -17 -106 -18 -55 -1 -66 2
-88 25 -28 28 -34 58 -38 207 l-2 82 282 0 c219 0 283 -3 284 -12 0 -7 1 -147
2 -310 l0 -298 207 0 206 0 -1 298 c-1 163 1 303 3 310 3 9 72 12 298 12 l294
0 0 -310 0 -310 205 0 205 0 0 310 0 310 168 -2 c102 -2 167 -7 168 -13 2 -29
18 -97 35 -154 78 -251 266 -420 527 -475 89 -19 325 -14 407 8 206 56 359
192 440 393 44 110 50 154 20 159 -11 2 -49 8 -85 14 -36 7 -78 14 -95 17 -16
2 -65 11 -109 19 -43 7 -80 14 -82 14 -2 0 -12 -30 -23 -68 -37 -123 -94 -190
-188 -218 -172 -52 -349 45 -398 216 -9 30 -18 63 -21 73 -5 16 31 17 650 17
l654 0 -1 -310 -2 -310 208 0 207 0 0 310 0 310 354 0 354 0 -20 -57 c-37
-106 -24 -253 32 -364 31 -61 124 -149 190 -181 153 -75 371 -76 534 -4 65 29
153 85 190 123 14 14 28 24 31 22 2 -3 15 -38 27 -79 l24 -75 206 -3 207 -2
-23 52 c-53 121 -67 203 -71 425 l-2 143 253 0 253 0 46 -147 c26 -82 57 -179
69 -218 13 -38 36 -112 51 -162 l29 -93 201 0 201 0 80 308 81 307 101 3 101
3 15 -53 c8 -29 31 -114 51 -188 50 -190 62 -236 83 -310 l18 -65 197 -3 c197
-2 197 -2 207 20 5 13 37 111 71 218 33 107 74 237 91 288 l29 92 279 0 c256
0 278 -1 281 -17 3 -10 4 -150 3 -310 l0 -293 206 0 206 0 -1 301 c0 165 3
305 6 310 3 6 99 8 229 7 l223 -3 4 -28 c2 -16 15 -65 29 -109 62 -194 180
-334 359 -423 135 -67 233 -90 390 -89 146 0 187 5 286 39 143 48 305 174 387
299 l32 49 0 -6886 0 -6887 -9800 0 -9800 0 0 9800 0 9800 9800 0 9800 0 0
-2481z m-10208 -2443 c71 -34 115 -96 123 -175 13 -116 14 -141 2 -142 -42 -3
-527 -3 -548 -1 -24 4 -26 8 -22 35 28 196 157 312 338 304 40 -2 86 -11 107
-21z m12614 -9 c57 -30 114 -86 143 -142 27 -53 53 -157 42 -164 -5 -3 -155
-6 -333 -5 l-323 0 3 25 c17 135 110 260 224 301 73 26 176 19 244 -15z
m-2955 -21 c95 -44 171 -136 202 -241 l14 -50 -361 1 -361 0 3 30 c5 43 45
123 87 172 99 115 279 153 416 88z m-3218 -265 c3 -13 -1 -21 -12 -24 -14 -3
-16 1 -13 24 5 31 17 31 25 0z m-1786 -420 c-7 -110 -34 -160 -122 -226 -81
-61 -227 -80 -305 -41 -141 72 -161 261 -35 334 13 8 94 11 244 12 l224 0 -6
-79z m1322 62 c0 -17 -17 -64 -18 -53 -1 3 -5 20 -10 38 -9 28 -7 32 10 32 12
0 19 -7 18 -17z m925 -10 c-9 -37 -24 -53 -24 -26 0 12 -3 28 -6 37 -4 12 0
16 15 16 18 0 20 -4 15 -27z m2956 -27 c-61 -178 -209 -279 -383 -262 -151 14
-283 134 -323 291 l-6 25 365 0 366 0 -19 -54z m2944 27 c-30 -138 -97 -233
-200 -284 -72 -35 -189 -34 -261 3 -28 14 -68 44 -88 65 -44 46 -92 143 -100
201 l-6 42 331 0 330 0 -6 -27z"/>
<path d="M6006 14418 c-2 -7 -18 -80 -35 -161 -54 -249 -112 -418 -184 -529
-35 -55 -39 -58 -77 -58 -22 0 -40 -2 -40 -3 0 -5 -38 -184 -49 -229 l-9 -38
54 0 c39 0 54 4 54 14 0 7 7 46 16 85 l16 71 298 0 297 0 -17 -85 -17 -85 48
0 c54 0 56 2 65 56 3 22 7 44 8 49 2 6 8 37 15 70 7 33 15 68 17 78 4 13 -1
17 -20 17 -14 0 -26 4 -26 10 0 9 34 172 85 405 13 61 26 121 29 135 10 55 37
176 42 193 5 16 -13 17 -281 17 -220 0 -286 -3 -289 -12z m430 -113 c-4 -14
-22 -100 -42 -192 -19 -93 -39 -186 -44 -208 -11 -50 -40 -182 -46 -212 -4
-23 -4 -23 -220 -23 l-215 0 21 30 c54 75 140 314 192 530 11 47 22 88 25 93
2 4 79 7 170 7 l165 0 -6 -25z"/>
<path d="M16470 14410 c0 -28 36 -93 61 -111 17 -12 52 -23 84 -26 46 -5 62
-2 109 22 43 21 60 38 81 76 l26 49 -35 0 c-25 0 -43 -8 -64 -29 -53 -53 -154
-52 -180 2 -10 22 -20 27 -48 27 -18 0 -34 -4 -34 -10z"/>
<path d="M6805 14189 c-59 -22 -116 -73 -144 -127 l-20 -40 31 -6 c57 -11 72
-6 103 37 51 69 126 93 215 66 48 -14 71 -52 64 -105 -5 -45 -25 -63 -68 -65
-252 -11 -327 -34 -375 -114 -62 -102 -12 -235 99 -265 80 -21 154 -6 244 50
l34 20 6 -35 7 -35 55 0 c53 0 55 1 48 23 -15 47 -6 128 34 296 12 49 20 114
19 152 -2 77 -20 105 -92 142 -57 29 -191 33 -260 6z m220 -321 c-32 -165
-151 -260 -273 -217 -44 15 -65 52 -59 105 7 67 50 96 162 108 106 12 150 18
154 22 11 11 19 2 16 -18z"/>
<path d="M8321 14190 c-75 -27 -133 -79 -173 -154 -96 -184 -65 -377 72 -448
36 -19 60 -23 125 -23 69 1 87 5 134 30 29 16 69 48 88 70 36 41 67 94 61 101
-2 2 -27 6 -56 10 -43 5 -52 3 -52 -9 0 -27 -85 -105 -126 -116 -52 -15 -70
-14 -110 5 -46 22 -73 70 -81 143 l-5 61 230 0 c260 0 242 -6 242 84 0 201
-160 314 -349 246z m176 -79 c44 -27 63 -59 70 -120 l6 -51 -176 0 -177 0 18
45 c46 116 173 178 259 126z"/>
<path d="M9994 14196 c-141 -45 -236 -191 -238 -366 -1 -98 19 -154 75 -208
89 -87 267 -78 374 20 38 34 91 115 82 124 -3 3 -26 7 -51 10 -44 4 -47 3 -70
-34 -51 -82 -161 -124 -226 -86 -45 27 -71 75 -77 144 l-6 59 227 1 c125 0
231 2 236 5 4 3 8 38 8 78 0 79 -24 155 -61 196 -55 60 -181 86 -273 57z m175
-93 c33 -25 53 -65 59 -120 l5 -43 -176 0 -175 0 6 23 c21 68 85 139 146 159
35 12 107 1 135 -19z"/>
<path d="M10985 14193 c-70 -25 -107 -54 -148 -115 -42 -64 -66 -132 -75 -213
-15 -122 19 -215 96 -269 40 -28 50 -31 125 -31 93 0 137 17 198 79 36 36 87
131 76 142 -3 3 -25 8 -50 10 -44 5 -44 5 -68 -42 -66 -127 -206 -151 -255
-42 -34 75 -12 236 44 328 77 125 249 115 265 -15 4 -29 6 -30 53 -30 l49 1
-2 46 c-1 57 -34 109 -87 139 -54 30 -154 36 -221 12z"/>
<path d="M12300 14189 c-25 -11 -57 -32 -72 -46 -30 -29 -33 -25 -19 25 l10
33 -52 -3 -51 -3 -48 -230 c-26 -126 -50 -246 -54 -265 -3 -19 -9 -51 -14 -70
-5 -19 -16 -71 -25 -115 -9 -44 -19 -89 -21 -100 -2 -11 -7 -35 -10 -52 l-5
-33 53 0 53 0 19 93 c10 50 19 97 20 102 2 6 9 38 16 73 l13 63 38 -39 c46
-49 95 -66 161 -59 190 23 328 287 263 503 -35 118 -161 175 -275 123z m118
-79 c80 -49 90 -192 23 -335 -49 -104 -113 -149 -187 -131 -72 18 -103 64
-105 157 -5 214 144 385 269 309z"/>
<path d="M12909 14196 c-65 -20 -127 -73 -160 -138 -14 -28 -16 -38 -7 -39 7
0 31 -2 53 -5 36 -5 42 -2 58 25 9 16 30 41 47 54 55 47 165 47 220 1 26 -22
28 -30 25 -72 -5 -54 -22 -72 -74 -73 -66 -1 -212 -17 -249 -25 -44 -11 -98
-50 -121 -88 -39 -62 -31 -165 16 -218 65 -74 220 -75 320 -1 17 12 34 23 36
23 3 0 8 -16 11 -35 7 -35 7 -35 59 -35 l53 0 -4 63 c-4 62 0 90 38 262 10 50
19 116 20 148 0 55 -2 60 -42 100 -31 30 -57 46 -94 55 -58 15 -151 14 -205
-2z m205 -314 c10 -16 -41 -143 -70 -173 -58 -62 -140 -83 -209 -54 -54 22
-71 89 -38 146 26 44 66 57 232 73 30 3 56 8 59 11 8 7 20 6 26 -3z"/>
<path d="M15857 14200 c-80 -21 -140 -67 -176 -139 -15 -29 -18 -41 -9 -42 7
0 31 -3 54 -5 38 -4 42 -1 65 33 34 52 67 72 127 80 97 11 170 -37 157 -104
-2 -10 -4 -26 -4 -36 -1 -25 -42 -37 -146 -43 -177 -10 -251 -37 -294 -108
-43 -69 -30 -179 27 -229 71 -64 211 -59 312 9 l35 24 8 -35 c9 -35 9 -35 64
-35 l55 0 -8 33 c-9 44 -9 54 0 117 8 53 10 63 20 105 2 11 11 48 19 83 9 35
15 94 14 132 -2 78 -20 106 -91 142 -45 23 -169 33 -229 18z m187 -337 c-33
-137 -90 -203 -192 -219 -106 -17 -174 66 -127 155 18 35 69 57 155 65 94 10
144 17 149 22 13 13 21 0 15 -23z"/>
<path d="M7323 14193 c-7 -2 -13 -22 -13 -44 0 -37 1 -38 29 -33 36 8 53 -16
70 -99 8 -38 23 -70 42 -91 l29 -34 -29 -11 c-42 -18 -109 -84 -193 -191 -102
-130 -100 -120 -25 -120 l64 0 97 126 c86 110 141 164 169 164 10 0 4 -48 -13
-125 -16 -68 -19 -83 -25 -127 l-6 -38 50 0 c57 0 50 -15 86 160 14 68 27 126
29 128 8 8 64 -28 78 -50 8 -13 34 -71 58 -130 l43 -108 53 0 c30 0 54 2 54 4
0 6 -91 228 -102 251 -13 25 -57 65 -72 65 -6 0 4 9 22 20 46 28 63 46 111
118 47 70 81 97 112 89 16 -4 24 2 35 30 9 19 13 37 10 40 -3 3 -25 8 -49 10
-72 8 -115 -21 -187 -127 -58 -84 -108 -130 -142 -130 -14 0 -5 60 37 238 5
21 2 22 -50 22 -48 0 -55 -3 -56 -20 -1 -11 -2 -23 -3 -27 -4 -14 -26 -117
-30 -138 -14 -71 -18 -77 -44 -70 -35 9 -48 29 -68 105 -22 82 -38 115 -66
134 -21 15 -79 20 -105 9z"/>
<path d="M9197 14193 c-5 -8 -25 -103 -32 -148 -1 -11 -13 -65 -25 -120 -12
-55 -24 -110 -26 -122 -10 -54 -13 -72 -28 -141 -9 -40 -16 -78 -16 -83 0 -5
24 -9 54 -9 l53 0 6 38 c4 20 16 83 28 140 l22 102 144 0 c133 0 144 -1 139
-17 -3 -10 -15 -62 -25 -115 -11 -53 -23 -108 -27 -122 -6 -26 -5 -26 49 -26
l54 0 13 63 c7 34 14 71 16 82 3 11 26 125 52 253 l48 232 -52 0 -52 0 -10
-47 c-6 -27 -18 -87 -28 -135 l-17 -88 -143 0 c-79 0 -144 2 -144 4 0 3 7 33
14 68 15 65 22 96 32 161 l7 37 -51 0 c-28 0 -53 -3 -55 -7z"/>
<path d="M11457 14193 c-2 -5 -8 -26 -12 -48 -5 -22 -9 -42 -10 -45 -1 -7 -16
-82 -21 -105 -5 -30 -55 -267 -60 -290 -9 -39 -24 -118 -24 -127 0 -5 23 -8
52 -6 57 3 54 -1 73 103 3 17 12 62 21 100 9 39 28 131 43 205 l26 135 143 3
143 3 -5 -33 c-3 -18 -17 -87 -31 -153 -14 -65 -28 -133 -31 -150 -3 -16 -14
-69 -25 -117 -10 -48 -19 -90 -19 -93 0 -3 25 -5 55 -5 30 0 55 4 55 8 0 4 27
140 60 301 33 161 60 299 60 307 0 12 -43 14 -244 14 -135 0 -247 -3 -249 -7z"/>
<path d="M13445 14188 c-2 -7 -15 -69 -29 -138 -14 -69 -27 -136 -30 -150 -3
-14 -8 -36 -11 -50 -4 -14 -8 -34 -9 -45 -2 -11 -6 -46 -11 -78 -14 -105 31
-159 139 -163 71 -3 136 23 193 78 19 18 33 29 32 23 -6 -22 27 -68 60 -84 76
-37 161 -23 240 39 47 37 50 38 41 14 -21 -54 -15 -64 40 -64 53 0 52 -1 64
70 2 14 21 104 41 200 21 96 39 184 41 195 2 11 6 31 9 45 3 14 7 34 9 45 2
11 7 32 11 48 7 27 7 27 -46 27 l-54 0 -42 -194 c-23 -107 -49 -210 -58 -229
-33 -70 -107 -126 -175 -134 -53 -6 -72 13 -72 73 0 38 50 306 87 462 5 21 2
22 -50 22 -30 0 -55 -2 -55 -4 0 -3 -31 -153 -55 -271 -3 -11 -7 -33 -11 -50
-16 -78 -38 -126 -79 -168 -60 -63 -137 -84 -184 -51 -21 15 -23 22 -18 78 3
33 24 148 46 255 23 107 41 198 41 202 0 14 -100 11 -105 -3z"/>
<path d="M14455 14178 c-3 -13 -18 -79 -34 -148 -59 -252 -67 -295 -62 -366 2
-38 66 -92 116 -100 81 -12 144 9 224 74 l44 36 -7 -34 c-4 -19 -9 -43 -11
-52 -3 -15 4 -18 45 -18 43 0 50 3 55 23 2 12 12 54 21 92 9 39 18 84 20 100
3 17 9 44 14 60 5 17 23 95 40 175 17 80 34 153 36 163 5 15 -2 17 -50 17
l-55 0 -11 -57 c-45 -220 -81 -346 -115 -397 -40 -61 -95 -95 -165 -103 -43
-5 -52 -2 -75 21 -33 33 -33 39 24 286 17 74 37 161 45 193 l14 57 -54 0 c-47
0 -54 -3 -59 -22z"/>
<path d="M15285 14194 c-160 -38 -268 -185 -274 -371 -5 -157 77 -248 233
-260 97 -7 170 15 221 66 45 47 68 119 52 166 -11 35 -53 82 -79 91 -22 6 -24
24 -3 24 29 0 83 36 105 69 47 72 3 181 -83 208 -34 10 -139 14 -172 7z m147
-104 c21 -26 23 -68 4 -92 -7 -10 -30 -25 -51 -34 -47 -19 -229 -31 -239 -15
-8 13 25 71 62 108 62 62 186 80 224 33z m-63 -254 c51 -27 59 -109 15 -157
-24 -26 -89 -42 -141 -34 -81 12 -138 99 -125 189 l5 29 107 -6 c70 -3 119
-11 139 -21z"/>
<path d="M16375 14128 c-9 -40 -29 -127 -45 -193 -59 -249 -57 -294 17 -345
30 -21 48 -25 102 -25 75 1 126 23 190 81 l39 35 -9 -38 c-16 -70 -14 -73 40
-73 l48 0 17 83 c54 252 116 529 122 539 3 4 -21 8 -53 8 -49 0 -59 -3 -60
-17 -1 -10 -11 -58 -23 -108 -12 -49 -24 -101 -26 -114 -37 -191 -96 -280
-205 -312 -43 -13 -101 -5 -120 17 -13 16 -16 61 -6 109 9 47 76 341 81 356 2
8 7 26 10 42 6 27 6 27 -48 27 l-54 0 -17 -72z"/>
</g>
</svg>
